<svg xmlns="http://www.w3.org/2000/svg" version="1.1" xmlns:xlink="http://www.w3.org/1999/xlink" xmlns:svgjs="http://svgjs.dev/svgjs" viewBox="0 0 800 400"><path d="M257.8475341796875,13.45291519165039C257.8475341796875,13.45291519165039,721.524658203125,10.76233196258545,721.524658203125,10.76233196258545C721.524658203125,10.76233196258545,723.318359375,87.89237976074219,723.318359375,87.89237976074219C723.318359375,87.89237976074219,689.2376708984375,119.28250885009766,689.2376708984375,119.28250885009766C689.2376708984375,119.28250885009766,96.41255950927734,127.35426330566406,96.41255950927734,127.35426330566406C96.41255950927734,127.35426330566406,40.80717468261719,161.4349822998047,40.80717468261719,161.4349822998047C40.80717468261719,161.4349822998047,34.52914810180664,238.5650177001953,34.52914810180664,238.5650177001953C34.52914810180664,238.5650177001953,682.9596557617188,246.6367645263672,682.9596557617188,246.6367645263672C682.9596557617188,246.6367645263672,726.9058227539062,284.304931640625,726.9058227539062,284.304931640625C726.9058227539062,284.304931640625,729.596435546875,354.2601013183594,729.596435546875,354.2601013183594C729.596435546875,354.2601013183594,71.30044555664062,361.4349670410156,71.30044555664062,361.4349670410156" fill="none" stroke-width="2" stroke="hsl(0, 0%, 65%)" stroke-linecap="round" stroke-dasharray="0 0" transform="matrix(1.0942519046484378,0,0,1.0942519046484378,-18.07292303924544,-3.638803235187197)"></path><defs><linearGradient id="SvgjsLinearGradient1001"><stop stop-color="hsl(37, 99%, 67%)" offset="0"></stop><stop stop-color="hsl(316, 73%, 52%)" offset="1"></stop></linearGradient></defs></svg>